<svg style="display: none;">
    <symbol id="arrow-previous" xmlns="http://www.w3.org/2000/svg" viewBox="0 -960 960 960">
        <path d="m313-440 224 224-57 56-320-320 320-320 57 56-224 224h487v80H313Z" />
    </symbol>

    <symbol id="arrow-next" xmlns="http://www.w3.org/2000/svg" viewBox="0 -960 960 960">
        <path d="M647-440H160v-80h487L423-744l57-56 320 320-320 320-57-56 224-224Z" />
    </symbol>

    <symbol id="rating-icon" xmlns="http://www.w3.org/2000/svg" viewBox="0 -960 960 960">
        <path d="m354-287 126-76 126 77-33-144 111-96-146-13-58-136-58 135-146 13 111 97-33 143ZM233-120l65-281L80-590l288-25 112-265 112 265 288 25-218 189 65 281-247-149-247 149Zm247-350Z"/>
    </symbol>

    <symbol id="vote-count" xmlns="http://www.w3.org/2000/svg" viewBox="0 -960 960 960">
        <path d="M200-80q-33 0-56.5-23.5T120-160v-182l110-125 57 57-80 90h546l-78-88 57-57 108 123v182q0 33-23.5 56.5T760-80H200Zm0-80h560v-80H200v80Zm225-225L284-526q-23-23-22.5-56.5T285-639l196-196q23-23 57-24t57 22l141 141q23 23 24 56t-22 56L538-384q-23 23-56.5 22.5T425-385Zm255-254L539-780 341-582l141 141 198-198ZM200-160v-80 80Z"/>
    </symbol>

    <symbol id="popularity" xmlns="http://www.w3.org/2000/svg" viewBox="0 -960 960 960">
        <path d="m136-240-56-56 296-298 160 160 208-206H640v-80h240v240h-80v-104L536-320 376-480 136-240Z"/>
    </symbol>

    <symbol id="arrow-forward" xmlns="http://www.w3.org/2000/svg" viewBox="0 -960 960 960">
        <path   d="m321-80-71-71 329-329-329-329 71-71 400 400L321-80Z"/>
    </symbol>

    <symbol id="image-placeholder" xmlns="http://www.w3.org/2000/svg" viewBox="0 -960 960 960">
        <path d="m840-234-80-80v-446H314l-80-80h526q33 0 56.5 23.5T840-760v526ZM792-56l-64-64H200q-33 0-56.5-23.5T120-200v-528l-64-64 56-56 736 736-56 56ZM240-280l120-160 90 120 33-44-283-283v447h447l-80-80H240Zm297-257ZM424-424Z"/>
    </symbol>

    <symbol id="fullscreen" xmlns="http://www.w3.org/2000/svg" viewBox="0 -960 960 960">
        <path d="M120-120v-200h80v120h120v80H120Zm520 0v-80h120v-120h80v200H640ZM120-640v-200h200v80H200v120h-80Zm640 0v-120H640v-80h200v200h-80Z"/>
    </symbol>

    <symbol id="fullscreen-exit" xmlns="http://www.w3.org/2000/svg" viewBox="0 -960 960 960">
        <path d="M240-120v-120H120v-80h200v200h-80Zm400 0v-200h200v80H720v120h-80ZM120-640v-80h120v-120h80v200H120Zm520 0v-200h80v120h120v80H640Z"/>
    </symbol>

    <symbol id="close" xmlns="http://www.w3.org/2000/svg" viewBox="0 -960 960 960">
        <path d="m256-200-56-56 224-224-224-224 56-56 224 224 224-224 56 56-224 224 224 224-56 56-224-224-224 224Z"/>
    </symbol>

    <symbol id="help" xmlns="http://www.w3.org/2000/svg" viewBox="0 -960 960 960">
        <path d="M478-240q21 0 35.5-14.5T528-290q0-21-14.5-35.5T478-340q-21 0-35.5 14.5T428-290q0 21 14.5 35.5T478-240Zm-36-154h74q0-33 7.5-52t42.5-52q26-26 41-49.5t15-56.5q0-56-41-86t-97-30q-57 0-92.5 30T342-618l66 26q5-18 22.5-39t53.5-21q32 0 48 17.5t16 38.5q0 20-12 37.5T506-526q-44 39-54 59t-10 73Zm38 314q-83 0-156-31.5T197-197q-54-54-85.5-127T80-480q0-83 31.5-156T197-763q54-54 127-85.5T480-880q83 0 156 31.5T763-763q54 54 85.5 127T880-480q0 83-31.5 156T763-197q-54 54-127 85.5T480-80Zm0-80q134 0 227-93t93-227q0-134-93-227t-227-93q-134 0-227 93t-93 227q0 134 93 227t227 93Zm0-320Z"/>
    </symbol>

    <symbol id="arrow-dropdown" xmlns="http://www.w3.org/2000/svg" viewBox="0 -960 960 960">
        <path d="M480-360 280-560h400L480-360Z"/>
    </symbol>

    <svg id="segment" xmlns="http://www.w3.org/2000/svg" viewBox="0 -960 960 960">
        <path d="M328-222v-106h544v106H328Zm0-206v-106h544v106H328ZM88-634v-106h784v106H88Z"/>
    </svg>
</svg>