<!-- sprite.svg -->  
<svg xmlns="http://www.w3.org/2000/svg" style="display:none;">
  <symbol viewBox="0 -960 960 960" id="searchIcon">
    <path d="M784-120 532-372q-30 24-69 38t-83 14q-109 0-184.5-75.5T120-580q0-109 75.5-184.5T380-840q109 0 184.5 75.5T640-580q0 44-14 83t-38 69l252 252-56 56ZM380-400q75 0 127.5-52.5T560-580q0-75-52.5-127.5T380-760q-75 0-127.5 52.5T200-580q0 75 52.5 127.5T380-400Z"/>
  </symbol>
  
  <symbol viewBox="0 -960 960 960" id="chevronForewardIcon">
    <path d="M504-480 320-664l56-56 240 240-240 240-56-56 184-184Z"/>
  </symbol>
  
  <symbol viewBox="0 -960 960 960" id="chevronBackwardIcon">
    <path d="M560-240 320-480l240-240 56 56-184 184 184 184-56 56Z"/>
  </symbol>
  
  <!-- <symbol viewBox="0 0 960 960" id="loadingImagePlaceholder">
    <rect fill="#606161" width="960" height="960"/>
    <path fill="#fff" d="M528.41,454.78c.01,16.84.01,33.68.01,50.52,0,4.79-2.29,7.06-7.12,7.06h-66.07c3.03-3.01,5.71-5.65,8.37-8.31.7-.69,1.56-.41,2.35-.41,16.98-.01,33.95-.01,50.93-.01h2.82c-9.1-9.06-17.72-17.71-26.42-26.27-1.23-1.2-1.29-1.78-.03-3.02,8.4-8.28,16.78-16.59,25.01-25.04,1.74-1.79,3.55-1.94,5.57-1.45,2.28.57,3.9,2.04,4.38,4.47.16.8.2,1.64.2,2.46Z"/>
    <path fill="#fff" d="M431.9,508.09c.85,3.22,5.98,5.84,8.27,3.96,2.98-2.44,5.54-5.39,8.57-8.41h-7.73c-.18-.21-.35-.43-.53-.65.52-.32,1.12-.56,1.55-.98,6.23-6.15,12.44-12.33,18.65-18.5,2.92-2.92,2.97-2.95,5.86,0,.95.97,1.45.94,2.4-.03,7.52-7.6,15.09-15.15,22.66-22.7,4.26-4.26,8.55-8.51,13.2-13.12h-2.32c-21.25,0-42.51-.01-63.76,0-4.83,0-7.12,2.26-7.12,7.05,0,16.84,0,33.68.01,50.51,0,.96.05,1.95.29,2.87ZM453.51,458.88c3.8-.05,6.89,2.94,6.91,6.69.02,3.7-3.12,6.81-6.85,6.79-3.67-.04-6.66-3.05-6.68-6.73-.02-3.72,2.89-6.69,6.62-6.75Z"/>
    <path fill="#fff" d="M532.24,430.49c.02,1.25-.81,1.98-1.6,2.77-19.31,19.31-38.62,38.62-57.93,57.94-12.92,12.93-25.84,25.85-38.76,38.77-.44.44-.86.91-1.32,1.32-1.33,1.2-3.01,1.27-4.09.2-1.08-1.07-1.06-2.8.18-4.08,2.35-2.43,4.76-4.79,7.15-7.18,30.09-30.09,60.18-60.18,90.27-90.26.64-.63,1.26-1.32,2-1.78,1.9-1.15,4.12.13,4.1,2.3Z"/>
  </symbol> -->
</svg>